# xmcd CD database file
# Copyright (C) 1993-1998 Ti Kan
#
# Track frame offsets:
#	150
#	32700
#	51080
#	74630
#	97867
#	116072
#	131762
#	151702
#	168919
#	186896
#	209369
#	233404
#	259786
#	283513
#	320918
#
# Disc length: 4397 seconds
#
# Revision: 1
# Processed by: cddbd v1.4b41PL1 Copyright (c) Steve Scherf et al.
# Submitted via: NotifyCDPlayer(CDDB) 1.51.1
#
DISCID=d3112b0f
DTITLE=Blue Rodeo - Best Of
DYEAR=1900
DGENRE=
TTITLE0=5 Days In May
TTITLE1=Try
TTITLE2=Hasn't Hit Me Yet
TTITLE3=Bad Timing
TTITLE4=Head Over Heels
TTITLE5=Better Of As We Are
TTITLE6=After The Rain
TTITLE7=Trust Yourself
TTITLE8=Til I Am Myself Again
TTITLE9=It Could Happen To You
TTITLE10=Disappear
TTITLE11=Dragging On
TTITLE12=Falling Down Blue
TTITLE13=Diamond Mine
TTITLE14=Home
EXTD=
EXTT0=
EXTT1=
EXTT2=
EXTT3=
EXTT4=
EXTT5=
EXTT6=
EXTT7=
EXTT8=
EXTT9=
EXTT10=
EXTT11=
EXTT12=
EXTT13=
EXTT14=
PLAYORDER=
